<?xml version="1.0" encoding="UTF-8"?>
<!DOCTYPE svg PUBLIC "-//W3C//DTD SVG 1.1//EN" "http://www.w3.org/Graphics/SVG/1.1/DTD/svg11.dtd">
<!-- Creator: CorelDRAW -->
<svg xmlns="http://www.w3.org/2000/svg" xml:space="preserve" width="6.82666in" height="6.82666in" style="shape-rendering:geometricPrecision; text-rendering:geometricPrecision; image-rendering:optimizeQuality; fill-rule:evenodd; clip-rule:evenodd"
viewBox="0 0 6.82666 6.82666"
 xmlns:xlink="http://www.w3.org/1999/xlink">
 <defs>
  <style type="text/css">
   <![CDATA[
    .fil2 {fill:none}
    .fil6 {fill:#333333}
    .fil1 {fill:#E7C633}
    .fil0 {fill:#FDD835}
    .fil4 {fill:#424242;fill-rule:nonzero}
    .fil5 {fill:#6E6E6E;fill-rule:nonzero}
    .fil3 {fill:#E53935;fill-rule:nonzero}
   ]]>
  </style>
   <clipPath id="id0">
    <path d="M3.41333 0c1.88513,0 3.41333,1.5282 3.41333,3.41333 0,1.88513 -1.5282,3.41333 -3.41333,3.41333 -1.88513,0 -3.41333,-1.5282 -3.41333,-3.41333 0,-1.88513 1.5282,-3.41333 3.41333,-3.41333z"/>
   </clipPath>
 </defs>
 <g id="Layer_x0020_1">
  <metadata id="CorelCorpID_0Corel-Layer"/>
  <path class="fil0" d="M3.41333 0c1.88513,0 3.41333,1.5282 3.41333,3.41333 0,1.88513 -1.5282,3.41333 -3.41333,3.41333 -1.88513,0 -3.41333,-1.5282 -3.41333,-3.41333 0,-1.88513 1.5282,-3.41333 3.41333,-3.41333z"/>
  <g style="clip-path:url(#id0)">
   <g id="_328325136">
    <g>
     <polygon id="_3305475681" class="fil1" points="4.37554,2.29179 8.16181,6.07806 8.15463,6.07095 8.14739,6.06391 8.14007,6.05694 8.1327,6.05004 8.12526,6.04321 8.11775,6.03645 8.11017,6.02976 8.10254,6.02315 8.09484,6.0166 8.08707,6.01013 8.07925,6.00373 8.07136,5.99741 8.06341,5.99116 8.0554,5.98499 8.04732,5.97889 8.03919,5.97287 8.031,5.96692 8.02275,5.96106 8.01444,5.95526 8.00608,5.94955 7.99766,5.94392 7.98918,5.93837 7.98064,5.93289 7.97205,5.9275 7.96341,5.92219 7.9547,5.91696 7.94595,5.91181 7.93715,5.90675 7.92828,5.90177 7.91937,5.89687 7.91041,5.89206 7.90139,5.88733 4.11513,2.10106 4.12414,2.10578 4.13311,2.1106 4.14202,2.1155 4.15088,2.12048 4.15969,2.12554 4.16844,2.13069 4.17714,2.13592 4.18578,2.14123 4.19437,2.14662 4.20291,2.15209 4.21139,2.15765 4.21981,2.16328 4.22818,2.16899 4.23648,2.17478 4.24474,2.18065 4.25293,2.18659 4.26106,2.19262 4.26913,2.19872 4.27714,2.20489 4.28509,2.21114 4.29298,2.21746 4.30081,2.22386 4.30857,2.23033 4.31627,2.23687 4.32391,2.24349 4.33148,2.25018 4.33899,2.25694 4.34643,2.26377 4.35381,2.27067 4.36112,2.27764 4.36836,2.28468 "/>
     <polygon id="_330548360" class="fil1" points="2.77187,2.0722 6.55813,5.85847 6.54689,5.86349 6.53572,5.86864 6.52461,5.87392 6.51357,5.87932 6.50261,5.88485 6.49173,5.8905 6.48091,5.89628 6.47017,5.90218 6.45951,5.9082 6.44893,5.91434 6.43841,5.9206 6.42798,5.92698 6.41763,5.93348 6.40737,5.94009 6.39718,5.94682 6.38707,5.95367 6.37705,5.96063 6.36711,5.9677 6.35726,5.97488 6.3475,5.98218 6.33781,5.98959 6.32822,5.9971 6.31872,6.00472 6.30931,6.01246 6.3,6.0203 6.29077,6.02824 6.28163,6.03628 6.27259,6.04444 6.26365,6.05269 6.2548,6.06105 6.24604,6.0695 6.23739,6.07806 2.45112,2.29179 2.45978,2.28323 2.46853,2.27478 2.47738,2.26642 2.48633,2.25817 2.49537,2.25001 2.5045,2.24196 2.51373,2.23402 2.52305,2.22619 2.53246,2.21845 2.54196,2.21083 2.55155,2.20331 2.56123,2.19591 2.57099,2.18861 2.58084,2.18143 2.59078,2.17435 2.6008,2.16739 2.61091,2.16055 2.6211,2.15382 2.63137,2.1472 2.64172,2.1407 2.65215,2.13433 2.66266,2.12807 2.67324,2.12193 2.68391,2.11591 2.69465,2.11 2.70546,2.10423 2.71635,2.09857 2.72731,2.09305 2.73834,2.08765 2.74945,2.08237 2.76062,2.07722 "/>
     <polygon id="_330549464" class="fil1" points="4.41022,2.32815 8.19648,6.11443 8.17936,6.09604 8.16181,6.07806 4.37554,2.29179 4.39309,2.30976 "/>
     <polygon id="_330549536" class="fil1" points="4.11513,2.10106 7.90139,5.88733 7.86869,5.94396 4.08243,2.15769 "/>
     <polygon id="_330549344" class="fil1" points="4.08243,2.15769 7.86869,5.94396 7.85587,5.93749 7.84296,5.93121 7.82995,5.92512 7.81687,5.91922 7.8037,5.91352 7.79044,5.90801 7.77711,5.9027 7.7637,5.89758 7.75021,5.89266 7.73665,5.88794 7.72302,5.88342 7.70931,5.8791 7.69554,5.87498 7.6817,5.87106 7.6678,5.86735 7.65384,5.86384 7.63981,5.86054 7.62573,5.85744 7.61159,5.85455 7.5974,5.85187 7.58316,5.8494 7.56887,5.84713 7.55452,5.84508 7.54013,5.84324 7.5257,5.84161 7.51122,5.8402 7.49671,5.839 7.48216,5.83802 7.46757,5.83726 7.45294,5.83671 7.43829,5.83638 7.4236,5.83627 6.97559,5.83627 6.96307,5.83635 6.95056,5.83659 6.93808,5.83699 6.92562,5.83754 6.91319,5.83826 6.90079,5.83913 6.88841,5.84016 6.87606,5.84135 6.86374,5.84269 6.85146,5.84419 6.8392,5.84584 6.82698,5.84764 6.8148,5.8496 6.80265,5.85171 6.79054,5.85398 6.77847,5.85639 6.76644,5.85896 6.75445,5.86167 6.74251,5.86454 6.73061,5.86755 6.71875,5.87071 6.70694,5.87402 6.69518,5.87748 6.68346,5.88109 6.6718,5.88484 6.66019,5.88874 6.64863,5.89278 6.63712,5.89697 6.62567,5.9013 6.61428,5.90577 6.60294,5.91039 6.59166,5.91515 2.80539,2.12887 2.81667,2.12411 2.82801,2.1195 2.8394,2.11503 2.85085,2.1107 2.86236,2.10651 2.87392,2.10246 2.88553,2.09857 2.89719,2.09482 2.90891,2.09121 2.92067,2.08775 2.93248,2.08444 2.94434,2.08128 2.95624,2.07826 2.96819,2.0754 2.98017,2.07269 2.9922,2.07012 3.00428,2.0677 3.01639,2.06544 3.02853,2.06333 3.04072,2.06137 3.05294,2.05957 3.06519,2.05791 3.07748,2.05642 3.08979,2.05508 3.10214,2.05389 3.11452,2.05286 3.12693,2.05199 3.13935,2.05127 3.15181,2.05072 3.1643,2.05031 3.1768,2.05007 3.18933,2.05 3.63733,2.05 3.65202,2.05011 3.66668,2.05044 3.6813,2.05098 3.69589,2.05175 3.71044,2.05273 3.72496,2.05393 3.73943,2.05534 3.75387,2.05697 3.76826,2.05881 3.7826,2.06086 3.79689,2.06313 3.81113,2.0656 3.82533,2.06828 3.83946,2.07117 3.85355,2.07427 3.86757,2.07757 3.88154,2.08108 3.89544,2.08479 3.90927,2.08871 3.92304,2.09283 3.93675,2.09715 3.95038,2.10167 3.96394,2.10639 3.97743,2.11131 3.99084,2.11643 4.00417,2.12174 4.01743,2.12724 4.0306,2.13295 4.04369,2.13885 4.05669,2.14494 4.0696,2.15122 "/>
     <polygon id="_330549392" class="fil1" points="4.66044,3.26344 8.4467,7.04971 8.45152,7.05493 8.45582,7.06059 8.45958,7.06666 8.46276,7.07309 8.46532,7.07986 8.46723,7.08692 8.46844,7.09424 8.46893,7.10178 4.68266,3.3155 4.68218,3.30796 4.68096,3.30065 4.67906,3.29359 4.6765,3.28682 4.67331,3.28039 4.66956,3.27432 4.66525,3.26866 "/>
     <polygon id="_330548960" class="fil1" points="5.27404,3.92587 9.0603,7.71214 9.05875,7.72572 9.05703,7.73922 9.05513,7.75263 9.05307,7.76594 9.05083,7.77916 9.04844,7.79228 9.04587,7.8053 9.04315,7.81821 9.04026,7.83102 9.03722,7.84371 9.03401,7.8563 9.03065,7.86877 9.02715,7.88112 9.02348,7.89335 9.01967,7.90545 9.01571,7.91743 9.01161,7.92928 9.00735,7.941 9.00296,7.95258 8.99843,7.96403 8.99376,7.97533 8.98895,7.98649 8.98401,7.99751 8.97893,8.00837 8.97372,8.01909 8.96838,8.02965 8.96292,8.04005 8.95733,8.05029 8.95161,8.06037 8.94577,8.07028 8.93981,8.08002 8.93373,8.08959 5.14746,4.30332 5.15354,4.29375 5.1595,4.284 5.16534,4.27409 5.17106,4.26402 5.17665,4.25378 5.18211,4.24337 5.18745,4.23281 5.19266,4.2221 5.19774,4.21124 5.20268,4.20022 5.20749,4.18906 5.21216,4.17776 5.2167,4.16631 5.22109,4.15473 5.22534,4.14301 5.22944,4.13116 5.2334,4.11918 5.23722,4.10707 5.24088,4.09485 5.24439,4.0825 5.24774,4.07003 5.25095,4.05744 5.25399,4.04474 5.25688,4.03194 5.25961,4.01902 5.26217,4.006 5.26457,3.99289 5.2668,3.97967 5.26887,3.96635 5.27076,3.95295 5.27248,3.93945 "/>
     <polygon id="_330549032" class="fil1" points="2.80539,2.12887 6.59166,5.91515 6.59101,5.91542 2.80474,2.12915 "/>
     <polygon id="_330549104" class="fil1" points="4.832,4.52131 8.61827,8.30759 8.61365,8.30806 8.60901,8.30846 8.60436,8.30881 8.5997,8.30909 8.59502,8.30931 8.59034,8.30947 8.58564,8.30957 8.58093,8.3096 4.79466,4.52333 4.79937,4.5233 4.80407,4.5232 4.80876,4.52304 4.81343,4.52282 4.81809,4.52254 4.82274,4.52219 4.82738,4.52178 "/>
     <polygon id="_330549992" class="fil1" points="4.79466,4.52333 8.58093,8.3096 8.57823,8.30959 8.57544,8.30954 8.57257,8.30946 8.56961,8.30936 8.56656,8.30922 8.56343,8.30906 8.5602,8.30886 8.55691,8.30864 4.77064,4.52237 4.77394,4.52259 4.77716,4.52279 4.78029,4.52295 4.78334,4.52309 4.7863,4.52319 4.78917,4.52327 4.79196,4.52331 "/>
     <polygon id="_330550040" class="fil1" points="2.45112,2.29179 6.23739,6.07806 6.21983,6.09604 6.20271,6.11442 6.18603,6.13321 6.16979,6.1524 6.154,6.17197 6.13868,6.19193 6.12383,6.21225 6.10946,6.23294 6.09557,6.25398 6.08219,6.27536 6.06931,6.29708 6.05694,6.31913 6.04509,6.3415 6.03378,6.36419 6.023,6.38717 6.01277,6.41045 6.00309,6.43402 5.99398,6.45787 5.98544,6.48199 5.97748,6.50637 5.97011,6.531 5.96333,6.55587 5.95716,6.58099 5.95161,6.60633 5.94667,6.63189 5.94237,6.65766 5.93871,6.68364 5.93569,6.70981 5.93333,6.73617 5.93163,6.7627 5.93061,6.7894 5.93027,6.81627 2.144,3.03 2.14434,3.00313 2.14537,2.97643 2.14706,2.94989 2.14943,2.92354 2.15244,2.89737 2.1561,2.87139 2.16041,2.84562 2.16534,2.82006 2.17089,2.79472 2.17706,2.7696 2.18384,2.74472 2.19121,2.72009 2.19917,2.69572 2.20771,2.6716 2.21682,2.64775 2.2265,2.62418 2.23673,2.6009 2.24751,2.57791 2.25883,2.55523 2.27067,2.53286 2.28304,2.51081 2.29592,2.48909 2.30931,2.4677 2.32319,2.44667 2.33756,2.42598 2.35241,2.40565 2.36773,2.3857 2.38352,2.36613 2.39976,2.34694 2.41644,2.32815 2.43357,2.30976 "/>
     <polygon id="_330550160" class="fil1" points="4.68266,4.43769 8.46893,8.22396 8.46844,8.2315 8.46723,8.23882 8.46532,8.24588 8.46276,8.25264 8.45958,8.25907 8.45582,8.26514 8.45152,8.2708 8.4467,8.27602 8.44142,8.28077 8.4357,8.285 8.42957,8.28868 8.42309,8.29177 8.41628,8.29424 8.40919,8.29604 8.40183,8.29716 8.39427,8.29754 4.608,4.51126 4.61557,4.51089 4.62292,4.50977 4.63002,4.50796 4.63683,4.5055 4.64331,4.50241 4.64943,4.49872 4.65515,4.4945 4.66044,4.48975 4.66525,4.48453 4.66956,4.47887 4.67331,4.4728 4.6765,4.46637 4.67906,4.45961 4.68096,4.45255 4.68218,4.44523 "/>
     <polygon id="_330550208" class="fil1" points="4.77064,4.52237 8.55691,8.30864 8.55414,8.30843 8.55133,8.30819 8.54846,8.30791 8.54555,8.30761 8.54258,8.30727 8.53957,8.30691 8.5365,8.30652 8.53339,8.30609 4.74712,4.51982 4.75023,4.52024 4.7533,4.52064 4.75631,4.521 4.75928,4.52133 4.7622,4.52164 4.76506,4.52191 4.76787,4.52215 "/>
     <polygon id="_330550064" class="fil1" points="4.608,4.51126 8.39427,8.29754 8.38663,8.29715 8.37922,8.29602 8.37206,8.29418 8.3652,8.29167 8.35868,8.28852 8.35252,8.28478 8.34678,8.28048 8.34147,8.27567 4.5552,4.48939 4.56051,4.49421 4.56626,4.49851 4.57241,4.50225 4.57894,4.5054 4.5858,4.50791 4.59295,4.50975 4.60037,4.51088 "/>
     <polygon id="_330550136" class="fil1" points="5.28,3.81399 9.06627,7.60026 9.06624,7.60739 9.06617,7.6145 9.06606,7.62159 9.06589,7.62867 9.06567,7.63572 9.06541,7.64276 9.06511,7.64979 9.06476,7.65679 9.06436,7.66378 9.06391,7.67074 9.06343,7.67769 9.06289,7.68462 9.06231,7.69153 9.06169,7.69842 9.06102,7.70529 9.0603,7.71214 5.27404,3.92587 5.27475,3.91902 5.27542,3.91215 5.27604,3.90526 5.27662,3.89835 5.27716,3.89142 5.27765,3.88447 5.27809,3.87751 5.27849,3.87052 5.27884,3.86352 5.27915,3.85649 5.27941,3.84945 5.27962,3.84239 5.27979,3.83532 5.27991,3.82822 5.27998,3.82112 "/>
     <polygon id="_330549752" class="fil1" points="4.22256,1.91497 8.00883,5.70124 7.97613,5.75787 4.18987,1.9716 "/>
     <polygon id="_330550112" class="fil1" points="4.832,3.03 8.61827,6.81627 8.61827,6.89295 4.832,3.10668 "/>
     <polygon id="_330549704" class="fil1" points="4.52074,2.22775 8.30701,6.01402 8.32607,6.03549 8.34463,6.05741 8.36266,6.07978 8.38017,6.10258 8.39713,6.1258 8.41355,6.14944 8.42941,6.17348 8.4447,6.19793 8.45942,6.22275 8.47355,6.24795 8.48708,6.27352 8.50001,6.29944 8.51233,6.32572 8.52402,6.35233 8.53507,6.37927 8.54548,6.40653 8.55524,6.43409 8.56433,6.46196 8.57275,6.49012 8.58049,6.51856 8.58754,6.54727 8.59389,6.57624 8.59952,6.60546 8.60444,6.63493 8.60863,6.66462 8.61207,6.69454 8.61477,6.72468 8.6167,6.75502 8.61787,6.78555 8.61827,6.81627 4.832,3.03 4.83161,2.99928 4.83044,2.96874 4.8285,2.93841 4.8258,2.90827 4.82236,2.87835 4.81817,2.84865 4.81326,2.81919 4.80762,2.78996 4.80127,2.761 4.79422,2.73229 4.78648,2.70385 4.77806,2.67569 4.76897,2.64782 4.75921,2.62026 4.7488,2.593 4.73775,2.56606 4.72606,2.53944 4.71374,2.51317 4.70081,2.48725 4.68728,2.46168 4.67315,2.43648 4.65844,2.41165 4.64314,2.38721 4.62728,2.36317 4.61086,2.33953 4.5939,2.31631 4.57639,2.29351 4.55836,2.27114 4.5398,2.24922 "/>
     <polygon id="_330549896" class="fil1" points="5.14746,3.32467 8.93373,7.11094 8.93877,7.11885 8.94373,7.12688 8.9486,7.13502 8.95339,7.14328 8.9581,7.15165 8.96272,7.16013 8.96726,7.16872 8.9717,7.17742 8.97607,7.18622 8.98034,7.19513 8.98452,7.20415 8.98861,7.21326 8.9926,7.22248 8.99651,7.2318 9.00031,7.24121 9.00403,7.25072 9.00765,7.26031 9.01117,7.27001 9.01459,7.2798 9.01791,7.28967 9.02113,7.29963 9.02424,7.30968 9.02726,7.31981 9.03017,7.33002 9.03298,7.34032 9.03568,7.3507 9.03827,7.36115 9.04076,7.37168 9.04313,7.38228 9.0454,7.39296 9.04756,7.40371 9.0496,7.41453 5.26333,3.62826 5.26129,3.61744 5.25913,3.60669 5.25687,3.59601 5.25449,3.58541 5.252,3.57488 5.24941,3.56443 5.24671,3.55405 5.2439,3.54375 5.24099,3.53354 5.23798,3.52341 5.23486,3.51336 5.23164,3.5034 5.22832,3.49352 5.2249,3.48374 5.22138,3.47404 5.21776,3.46444 5.21405,3.45494 5.21024,3.44552 5.20633,3.43621 5.20234,3.42699 5.19825,3.41787 5.19407,3.40886 5.1898,3.39995 5.18544,3.39115 5.18099,3.38244 5.17645,3.37385 5.17183,3.36537 5.16713,3.357 5.16233,3.34875 5.15746,3.34061 5.1525,3.33258 "/>
     <polygon id="_330550928" class="fil1" points="5.14746,4.30332 8.93373,8.08959 8.92614,8.10107 8.91837,8.11228 8.91043,8.12324 8.90231,8.13393 8.89404,8.14435 8.8856,8.1545 8.877,8.16437 8.86824,8.17396 8.85932,8.18326 8.85026,8.19227 8.84105,8.20098 8.83169,8.20939 8.82218,8.2175 8.81254,8.22529 8.80276,8.23277 8.79284,8.23994 8.7828,8.24678 8.77262,8.25329 8.76232,8.25947 8.7519,8.26531 8.74135,8.27081 8.73069,8.27597 8.71992,8.28078 8.70903,8.28524 8.69803,8.28933 8.68693,8.29306 8.67573,8.29643 8.66443,8.29942 8.65302,8.30204 8.64153,8.30428 8.62994,8.30613 8.61827,8.30759 4.832,4.52131 4.84367,4.51985 4.85526,4.518 4.86676,4.51577 4.87816,4.51315 4.88946,4.51016 4.90067,4.50679 4.91176,4.50306 4.92276,4.49896 4.93365,4.49451 4.94443,4.4897 4.95509,4.48454 4.96563,4.47904 4.97605,4.4732 4.98635,4.46702 4.99653,4.4605 5.00657,4.45367 5.01649,4.4465 5.02627,4.43902 5.03591,4.43122 5.04542,4.42312 5.05478,4.41471 5.06399,4.406 5.07306,4.39699 5.08197,4.38769 5.09073,4.3781 5.09933,4.36823 5.10777,4.35808 5.11605,4.34766 5.12416,4.33697 5.1321,4.32601 5.13987,4.3148 "/>
     <polygon id="_330551000" class="fil1" points="5.26333,3.62826 9.0496,7.41453 9.05061,7.42009 9.05158,7.42567 9.05252,7.43127 9.05344,7.43689 9.05432,7.44252 9.05517,7.44817 9.056,7.45383 9.05679,7.45952 9.05755,7.46521 9.05828,7.47093 9.05898,7.47666 9.05965,7.4824 9.06029,7.48817 9.06089,7.49394 9.06146,7.49973 9.06201,7.50554 9.06252,7.51136 9.063,7.51719 9.06344,7.52304 9.06386,7.52891 9.06424,7.53478 9.06459,7.54067 9.06491,7.54657 9.06519,7.55249 9.06544,7.55842 9.06566,7.56436 9.06585,7.57031 9.066,7.57628 9.06611,7.58226 9.0662,7.58825 9.06625,7.59425 9.06627,7.60026 5.28,3.81399 5.27998,3.80798 5.27993,3.80198 5.27985,3.79599 5.27973,3.79001 5.27958,3.78404 5.27939,3.77809 5.27917,3.77215 5.27893,3.76622 5.27864,3.7603 5.27832,3.7544 5.27797,3.74851 5.27759,3.74263 5.27718,3.73677 5.27673,3.73092 5.27625,3.72509 5.27574,3.71927 5.2752,3.71346 5.27462,3.70767 5.27402,3.70189 5.27338,3.69613 5.27271,3.69039 5.27201,3.68466 5.27128,3.67894 5.27052,3.67324 5.26973,3.66756 5.26891,3.66189 5.26805,3.65625 5.26717,3.65061 5.26626,3.645 5.26531,3.6394 5.26434,3.63382 "/>
     <polygon id="_330550952" class="fil1" points="4.74712,4.51982 8.53339,8.30609 8.46893,8.29707 4.68266,4.5108 "/>
     <polygon id="_330551024" class="fil1" points="2.144,3.03 5.93027,6.81627 5.93027,6.90346 2.144,3.11719 "/>
     <polygon id="_330550856" class="fil1" points="2.144,3.11719 5.93027,6.90346 5.93027,6.96824 2.144,3.18196 "/>
     <polygon id="_330551096" class="fil1" points="2.144,3.18196 5.93027,6.96824 5.93027,7.09056 2.144,3.30429 "/>
     <polygon id="_330550736" class="fil1" points="2.2674,3.27587 6.05367,7.06214 6.05848,7.06744 6.06278,7.07319 6.06652,7.07935 6.06967,7.08587 6.07218,7.09273 6.07402,7.09989 6.07515,7.1073 6.07554,7.11494 2.28927,3.32867 2.28888,3.32103 2.28775,3.31362 2.28591,3.30646 2.2834,3.2996 2.28026,3.29307 2.27652,3.28692 2.27222,3.28117 "/>
     <polygon id="_330550784" class="fil1" points="2.28927,3.32867 6.07554,7.11494 6.07554,8.23494 2.28927,4.44867 "/>
     <polygon id="_330550616" class="fil1" points="2.28927,4.44867 6.07554,8.23494 6.07515,8.24257 6.07402,8.24998 6.07218,8.25714 6.06967,8.264 6.06652,8.27053 6.06278,8.27668 6.05848,8.28243 6.05367,8.28773 6.04836,8.29255 6.04261,8.29685 6.03646,8.30059 6.02993,8.30374 6.02307,8.30624 6.01591,8.30809 6.0085,8.30922 6.00087,8.3096 2.2146,4.52333 2.22223,4.52294 2.22965,4.52181 2.2368,4.51997 2.24366,4.51746 2.25019,4.51432 2.25635,4.51058 2.26209,4.50628 2.2674,4.50146 2.27222,4.49616 2.27652,4.49041 2.28026,4.48426 2.2834,4.47773 2.28591,4.47087 2.28775,4.46371 2.28888,4.4563 "/>
     <polygon id="_330551720" class="fil1" points="2.144,4.47304 5.93027,8.25931 5.93027,8.29707 2.144,4.5108 "/>
     <polygon id="_330551432" class="fil1" points="2.2146,4.52333 6.00087,8.3096 5.9948,8.30936 5.98886,8.30864 5.98307,8.30747 5.97746,8.30586 5.97204,8.30383 5.96682,8.30141 5.96183,8.2986 5.95709,8.29543 5.95262,8.29192 2.16635,4.50565 2.17083,4.50916 2.17557,4.51233 2.18056,4.51514 2.18577,4.51756 2.19119,4.51959 2.19681,4.5212 2.20259,4.52237 2.20853,4.52309 "/>
     <polygon id="_330551888" class="fil1" points="2.144,4.5108 5.93027,8.29707 5.86581,8.30609 2.07954,4.51982 "/>
     <polygon id="_330551480" class="fil1" points="2.07954,4.51982 5.86581,8.30609 5.8627,8.30652 5.85963,8.30691 5.85661,8.30727 5.85365,8.30761 5.85073,8.30791 5.84787,8.30819 5.84506,8.30843 5.84229,8.30864 2.05602,4.52237 2.05879,4.52215 2.0616,4.52191 2.06446,4.52164 2.06738,4.52133 2.07035,4.521 2.07336,4.52064 2.07643,4.52024 "/>
     <polygon id="_330551912" class="fil1" points="2.05602,4.52237 5.84229,8.30864 5.83899,8.30886 5.83577,8.30906 5.83264,8.30922 5.82959,8.30936 5.82663,8.30946 5.82376,8.30954 5.82097,8.30959 5.81827,8.3096 2.032,4.52333 2.0347,4.52331 2.03749,4.52327 2.04036,4.52319 2.04332,4.52309 2.04637,4.52295 2.0495,4.52279 2.05272,4.52259 "/>
     <polygon id="_330551504" class="fil1" points="2.032,4.52333 5.81827,8.3096 5.81357,8.30957 5.80889,8.30948 5.80422,8.30932 5.79957,8.3091 5.79493,8.30881 5.7903,8.30847 5.78568,8.30807 5.78107,8.3076 1.9948,4.52133 1.99941,4.5218 2.00403,4.5222 2.00866,4.52254 2.0133,4.52283 2.01796,4.52305 2.02263,4.5232 2.02731,4.5233 "/>
     <polygon id="_330551192" class="fil1" points="1.9948,4.52133 5.78107,8.3076 5.78093,8.30759 1.99466,4.52131 "/>
     <polygon id="_330551864" class="fil1" points="1.99466,4.52131 5.78093,8.30759 5.76926,8.30613 5.75767,8.30428 5.74617,8.30204 5.73477,8.29942 5.72347,8.29643 5.71226,8.29306 5.70117,8.28933 5.69017,8.28524 5.67928,8.28078 5.6685,8.27597 5.65784,8.27081 5.6473,8.26531 5.63688,8.25947 5.62657,8.25329 5.6164,8.24678 5.60635,8.23994 5.59644,8.23277 5.58666,8.22529 5.57702,8.2175 1.79075,4.43122 1.80039,4.43902 1.81017,4.4465 1.82009,4.45367 1.83013,4.4605 1.84031,4.46702 1.85061,4.4732 1.86103,4.47904 1.87157,4.48454 1.88224,4.4897 1.89301,4.49451 1.9039,4.49896 1.9149,4.50306 1.926,4.50679 1.9372,4.51016 1.9485,4.51315 1.95991,4.51577 1.9714,4.518 1.98299,4.51985 "/>
     <polygon id="_330551552" class="fil1" points="5.09073,3.24989 8.877,7.03616 8.8856,7.04603 8.89404,7.05618 8.90231,7.0666 8.91043,7.0773 8.91837,7.08825 8.92614,7.09947 8.93373,7.11094 5.14746,3.32467 5.13987,3.3132 5.1321,3.30198 5.12416,3.29102 5.11605,3.28033 5.10777,3.26991 5.09933,3.25976 "/>
    </g>
    <path id="_328324824" class="fil1" d="M4.18987 1.9716c0.107728,0.0566299 0.205886,0.129232 0.291256,0.214606 0.216496,0.216496 0.350878,0.515181 0.350878,0.843791l0 0.0766811c0.124988,0.0134921 0.235394,0.094248 0.315465,0.217996 0.0541654,0.0837165 0.0946693,0.187807 0.11587,0.303587 0.0108622,0.0592362 0.0166654,0.121535 0.0166654,0.185732 0,0.0380394 -0.00204331,0.0754094 -0.00596457,0.111874 -0.0156102,0.145354 -0.0611102,0.276283 -0.126571,0.377453 -0.0800709,0.123748 -0.190476,0.204508 -0.315465,0.217996 -0.012311,0.00132677 -0.0247598,0.00201575 -0.0373386,0.00201575 -0.00707874,0 -0.0151102,-0.000326772 -0.0240236,-0.000964567 -0.00729528,-0.000519685 -0.0151535,-0.00137795 -0.0235157,-0.00254724l-0.0644606 -0.00901575 0 -0.0647756 0 -0.00833858c-0.000586614,0.0407362 -0.0337913,0.0735748 -0.0746614,0.0735748 -0.0412362,0 -0.0746654,-0.0334291 -0.0746654,-0.0746693l0 -1.12c0,-0.0412362 0.0334291,-0.0746693 0.0746654,-0.0746693 0.0408701,0 0.0740748,0.0328425 0.0746614,0.0735748l0 -0.198311 0 -0.0871969c0,-0.28739 -0.117626,-0.548709 -0.307122,-0.738205 -0.076185,-0.076189 -0.16398,-0.140756 -0.260413,-0.190736l-0.0327008 0.0566378c-0.136299,-0.070063 -0.288283,-0.107697 -0.445091,-0.107697l-0.448008 0c-0.133728,0 -0.263953,0.0273661 -0.383933,0.078878l-0.000649606 0.000275591 -0.032878 -0.0569488c-0.120303,0.0528622 -0.228949,0.127791 -0.320744,0.219587 -0.189496,0.1895 -0.307122,0.450819 -0.307122,0.738209l0 0.0871969 0 0.0647717 0 0.122323c0.0101063,-0.0292677 0.0378976,-0.0502913 0.0705984,-0.0502913 0.0412362,0 0.0746693,0.0334331 0.0746693,0.0746693l0 1.12c0,0.0412362 -0.0334331,0.0746654 -0.0746693,0.0746654 -0.0327008,0 -0.0604921,-0.0210197 -0.0705984,-0.0502874l0 0.0377598 -0.0644606 0.00901575c-0.0083622,0.00116929 -0.0162205,0.00202756 -0.0235157,0.00254724 -0.00891339,0.000637795 -0.0169449,0.000964567 -0.0240236,0.000964567 -0.0125315,0 -0.0249291,-0.000681102 -0.0371969,-0.002l-0.000141732 -1.5748e-005c-0.124988,-0.0134882 -0.235394,-0.094248 -0.315465,-0.217996 -0.0654606,-0.101169 -0.110961,-0.232098 -0.126571,-0.377453 -0.00392126,-0.0364646 -0.00596457,-0.0738346 -0.00596457,-0.111874 0,-0.0641969 0.00581102,-0.126492 0.0166575,-0.185732 0.0212087,-0.11578 0.0617126,-0.21987 0.115878,-0.303587 0.0800709,-0.123748 0.190476,-0.204504 0.315465,-0.217996l0 -0.0766811c0,-0.32861 0.134382,-0.627299 0.350874,-0.843791 0.100976,-0.100976 0.219831,-0.184087 0.35126,-0.244031l-0.0328071 -0.0568268 0.00165354 -0.000767717c0.162516,-0.0747598 0.340614,-0.114579 0.523685,-0.114579l0.448008 0c0.20648,0 0.406622,0.0506772 0.585224,0.144972l-0.0326929 0.056626z"/>
   </g>
  </g>
  <path class="fil2" d="M3.41333 0c1.88513,0 3.41333,1.5282 3.41333,3.41333 0,1.88513 -1.5282,3.41333 -3.41333,3.41333 -1.88513,0 -3.41333,-1.5282 -3.41333,-3.41333 0,-1.88513 1.5282,-3.41333 3.41333,-3.41333z"/>
  <path class="fil3" d="M1.99466 4.52131c-0.124988,-0.0134882 -0.235394,-0.094248 -0.315465,-0.217996 -0.0818819,-0.126551 -0.132535,-0.299661 -0.132535,-0.489327 0,-0.189661 0.0506535,-0.362768 0.132535,-0.489319 0.0800709,-0.123748 0.190476,-0.204504 0.315465,-0.217996l0 1.41464z"/>
  <path class="fil4" d="M1.99466 3.10668l0 -0.0766811c0,-0.32861 0.134382,-0.627299 0.350874,-0.843791 0.216496,-0.216496 0.515185,-0.350874 0.843791,-0.350874l0.448008 0c0.328606,0 0.627295,0.134378 0.843787,0.350874 0.216496,0.216496 0.350878,0.515181 0.350878,0.843791l0 0.0766811 0 1.41464c-0.012311,0.00132677 -0.0247598,0.00201575 -0.0373386,0.00201575 -0.00707874,0 -0.0151102,-0.000326772 -0.0240236,-0.000964567 -0.00729528,-0.000519685 -0.0151535,-0.00137795 -0.0235157,-0.00254724l-0.0644606 -0.00901575 0 -0.0647756 0 -0.223071 0 -1.10576 0 -0.0871969c0,-0.28739 -0.117626,-0.548709 -0.307122,-0.738205 -0.189496,-0.1895 -0.450819,-0.307126 -0.738205,-0.307126l-0.448008 0c-0.287386,0 -0.548709,0.117626 -0.738205,0.307122 -0.189496,0.1895 -0.307122,0.450819 -0.307122,0.738209l0 0.0871969 0 0.0647717 0 1.03354 0 0.230524 0 0.0647756 -0.0644606 0.00901575c-0.0083622,0.00116929 -0.0162205,0.00202756 -0.0235157,0.00254724 -0.00891339,0.000637795 -0.0169449,0.000964567 -0.0240236,0.000964567 -0.0125315,0 -0.0249291,-0.000681102 -0.0371969,-0.002l-0.000141732 -1.5748e-005 0 -1.41464z"/>
  <path class="fil5" d="M2.28927 3.32867c0,-0.0412362 -0.0334331,-0.0746693 -0.0746693,-0.0746693 -0.0412362,0 -0.0746693,0.0334331 -0.0746693,0.0746693l0 1.12c0,0.0412362 0.0334331,0.0746654 0.0746693,0.0746654 0.0412362,0 0.0746693,-0.0334291 0.0746693,-0.0746654l0 -1.12z"/>
  <path class="fil5" d="M4.68267 3.3166c0,-0.0412362 -0.0334331,-0.0746693 -0.0746693,-0.0746693 -0.0412362,0 -0.0746654,0.0334331 -0.0746654,0.0746693l0 1.12c0,0.0412402 0.0334291,0.0746693 0.0746654,0.0746693 0.0412362,0 0.0746693,-0.0334291 0.0746693,-0.0746693l0 -1.12z"/>
  <path class="fil3" d="M4.832 4.52131c0.124988,-0.0134882 0.235394,-0.094248 0.315465,-0.217996 0.0818819,-0.126551 0.132535,-0.299661 0.132535,-0.489327 0,-0.189661 -0.0506535,-0.362768 -0.132535,-0.489319 -0.0800709,-0.123748 -0.190476,-0.204504 -0.315465,-0.217996l0 1.41464z"/>
  <path class="fil4" d="M5.27404 3.92587c0.00392126,-0.0364646 0.00596457,-0.0738346 0.00596457,-0.111874 0,-0.0641969 -0.00581102,-0.126492 -0.0166654,-0.185732 -0.0746299,0.0082874 -0.132669,0.0715591 -0.132669,0.148402 0,0.0804803 0.0636614,0.146075 0.14337,0.149205z"/>
  <path class="fil6" d="M2.66399 1.88535l0.00165354 -0.000767717c0.162516,-0.0747598 0.340614,-0.114579 0.523685,-0.114579l0.448008 0c0.20648,0 0.406622,0.0506772 0.585224,0.144972l-0.140134 0.24272c-0.136299,-0.070063 -0.288283,-0.107697 -0.445091,-0.107697l-0.448008 0c-0.133728,0 -0.263953,0.0273661 -0.383933,0.078878l-0.000649606 0.000275591 -0.140756 -0.243803z"/>
  <path class="fil4" d="M1.55263 3.92587c-0.00392126,-0.0364646 -0.00596457,-0.0738346 -0.00596457,-0.111874 0,-0.0641969 0.00581102,-0.126492 0.0166654,-0.185732 0.0746299,0.0082874 0.132669,0.0715591 0.132669,0.148402 0,0.0804803 -0.0636614,0.146075 -0.14337,0.149205z"/>
 </g>
</svg>
