<?xml version="1.0" encoding="UTF-8"?>
<!DOCTYPE svg PUBLIC "-//W3C//DTD SVG 1.1//EN" "http://www.w3.org/Graphics/SVG/1.1/DTD/svg11.dtd">
<!-- Creator: CorelDRAW -->
<svg xmlns="http://www.w3.org/2000/svg" xml:space="preserve" width="6.82666in" height="6.82666in" style="shape-rendering:geometricPrecision; text-rendering:geometricPrecision; image-rendering:optimizeQuality; fill-rule:evenodd; clip-rule:evenodd"
viewBox="0 0 6.82666 6.82666"
 xmlns:xlink="http://www.w3.org/1999/xlink">
 <defs>
  <style type="text/css">
   <![CDATA[
    .fil2 {fill:none}
    .fil1 {fill:#424242}
    .fil0 {fill:#616161}
    .fil4 {fill:#C2C2C2;fill-rule:nonzero}
    .fil5 {fill:#CCCCCC;fill-rule:nonzero}
    .fil3 {fill:#F44336;fill-rule:nonzero}
   ]]>
  </style>
   <clipPath id="id0">
    <path d="M3.41333 0c1.88513,0 3.41333,1.5282 3.41333,3.41333 0,1.88513 -1.5282,3.41333 -3.41333,3.41333 -1.88513,0 -3.41333,-1.5282 -3.41333,-3.41333 0,-1.88513 1.5282,-3.41333 3.41333,-3.41333z"/>
   </clipPath>
 </defs>
 <g id="Layer_x0020_1">
  <metadata id="CorelCorpID_0Corel-Layer"/>
  <path class="fil0" d="M3.41333 0c1.88513,0 3.41333,1.5282 3.41333,3.41333 0,1.88513 -1.5282,3.41333 -3.41333,3.41333 -1.88513,0 -3.41333,-1.5282 -3.41333,-3.41333 0,-1.88513 1.5282,-3.41333 3.41333,-3.41333z"/>
  <g style="clip-path:url(#id0)">
   <g id="_332353576">
    <g>
     <polygon id="_3314353681" class="fil1" points="3.94347,1.54666 7.72974,5.33293 7.72974,5.51861 3.94347,1.73234 "/>
     <polygon id="_331434912" class="fil1" points="3.94347,1.73234 7.72974,5.51861 7.72974,8.88059 3.94347,5.09432 "/>
     <polygon id="_331435800" class="fil1" points="5.25067,2.95705 9.03694,6.74332 8.61948,7.16078 4.83321,3.37451 "/>
     <polygon id="_331435896" class="fil1" points="5.25067,3.90196 9.03694,7.68823 9.03104,7.69357 9.02474,7.69819 9.01811,7.70211 9.01121,7.70531 9.00409,7.7078 8.9968,7.70958 8.9894,7.71065 8.98195,7.71101 8.9745,7.71065 8.96709,7.70958 8.95981,7.7078 8.95269,7.70531 8.94578,7.70211 8.93916,7.69819 8.93286,7.69357 8.92696,7.68823 5.14069,3.90196 5.14659,3.9073 5.15289,3.91192 5.15952,3.91584 5.16642,3.91904 5.17354,3.92153 5.18083,3.92331 5.18823,3.92438 5.19568,3.92474 5.20313,3.92438 5.21054,3.92331 5.21782,3.92153 5.22494,3.91904 5.23185,3.91584 5.23847,3.91192 5.24477,3.9073 "/>
     <polygon id="_331435992" class="fil1" points="5.14069,3.90196 8.92696,7.68823 8.50949,7.27077 4.72322,3.4845 "/>
     <polygon id="_331436040" class="fil1" points="4.72322,3.4845 8.50949,7.27077 8.09203,7.68823 4.30576,3.90196 "/>
     <polygon id="_331436688" class="fil1" points="4.30576,3.90196 8.09203,7.68823 8.08613,7.69357 8.07983,7.69819 8.0732,7.70211 8.0663,7.70531 8.05918,7.7078 8.05189,7.70958 8.04449,7.71065 8.03704,7.71101 8.02959,7.71065 8.02219,7.70958 8.0149,7.7078 8.00778,7.70531 8.00087,7.70211 7.99425,7.69819 7.98795,7.69357 7.98205,7.68823 4.19578,3.90196 4.20169,3.9073 4.20798,3.91192 4.21461,3.91584 4.22151,3.91904 4.22863,3.92153 4.23592,3.92331 4.24332,3.92438 4.25077,3.92474 4.25822,3.92438 4.26563,3.92331 4.27291,3.92153 4.28004,3.91904 4.28694,3.91584 4.29356,3.91192 4.29986,3.9073 "/>
     <polygon id="_331436832" class="fil1" points="4.61324,3.37451 8.39951,7.16078 7.98204,6.74332 4.19578,2.95705 "/>
     <polygon id="_331437024" class="fil1" points="5.25067,3.79197 9.03694,7.57824 9.04228,7.58415 9.04691,7.59044 9.05082,7.59707 9.05402,7.60397 9.05652,7.61109 9.0583,7.61838 9.05936,7.62578 9.05972,7.63324 9.05936,7.64069 9.0583,7.64809 9.05652,7.65538 9.05402,7.6625 9.05082,7.6694 9.04691,7.67603 9.04228,7.68232 9.03694,7.68823 5.25067,3.90196 5.25601,3.89605 5.26064,3.88976 5.26456,3.88313 5.26776,3.87623 5.27025,3.86911 5.27203,3.86182 5.27309,3.85442 5.27345,3.84696 5.27309,3.83951 5.27203,3.83211 5.27025,3.82482 5.26776,3.8177 5.26456,3.8108 5.26064,3.80417 5.25601,3.79788 "/>
     <polygon id="_331436376" class="fil1" points="3.94347,5.09432 7.72974,8.88059 7.72974,9.06627 3.94347,5.28 "/>
     <polygon id="_331436400" class="fil1" points="3.94347,5.28 7.72974,9.06627 7.58902,8.94528 3.80275,5.15901 "/>
     <polygon id="_331436928" class="fil1" points="3.80275,5.15901 7.58902,8.94528 7.57151,8.93023 3.78524,5.14396 "/>
     <polygon id="_331436424" class="fil1" points="3.78524,5.14396 7.57151,8.93023 7.57135,8.93009 3.78508,5.14382 "/>
     <polygon id="_331436448" class="fil1" points="3.78508,5.14382 7.57135,8.93009 6.50177,8.01051 2.7155,4.22424 "/>
     <polygon id="_331436592" class="fil1" points="2.7155,4.22424 6.50177,8.01051 5.69389,8.01051 1.90763,4.22424 "/>
     <polygon id="_331437240" class="fil1" points="1.90763,4.22424 5.69389,8.01051 5.69329,8.01051 1.90702,4.22424 "/>
     <polygon id="_331437768" class="fil1" points="1.90702,4.22424 5.69329,8.01051 5.5554,8.01051 1.76913,4.22424 "/>
     <polygon id="_331437552" class="fil1" points="1.76913,4.22424 5.5554,8.01051 5.54984,8.01044 5.54432,8.01022 5.53883,8.00987 5.53337,8.00939 5.52796,8.00877 5.52259,8.00801 5.51726,8.00712 5.51197,8.00611 5.50673,8.00496 5.50154,8.00369 5.4964,8.00229 5.4913,8.00077 5.48626,7.99913 5.48128,7.99737 5.47635,7.99548 5.47148,7.99349 5.46667,7.99138 5.46192,7.98915 5.45723,7.98682 5.45261,7.98437 5.44806,7.98182 5.44357,7.97917 5.43915,7.97641 5.43481,7.97354 5.43054,7.97057 5.42634,7.96751 5.42222,7.96435 5.41818,7.96109 5.41422,7.95774 1.62795,4.17147 1.63191,4.17482 1.63595,4.17808 1.64007,4.18124 1.64427,4.1843 1.64854,4.18727 1.65289,4.19013 1.6573,4.19289 1.66179,4.19555 1.66634,4.1981 1.67096,4.20055 1.67565,4.20288 1.6804,4.20511 1.68521,4.20722 1.69008,4.20921 1.69501,4.21109 1.7,4.21285 1.70504,4.2145 1.71013,4.21602 1.71527,4.21742 1.72046,4.21869 1.7257,4.21983 1.73099,4.22085 1.73632,4.22174 1.74169,4.2225 1.74711,4.22312 1.75256,4.2236 1.75805,4.22395 1.76357,4.22417 "/>
     <polygon id="_331437792" class="fil1" points="5.25601,2.85297 9.04228,6.63924 9.04691,6.64554 9.05082,6.65216 9.05402,6.65906 9.05652,6.66619 9.0583,6.67347 9.05936,6.68087 9.05972,6.68833 9.05936,6.69578 9.0583,6.70318 9.05652,6.71047 9.05402,6.71759 9.05082,6.72449 9.04691,6.73112 9.04228,6.73741 9.03694,6.74332 5.25067,2.95705 5.25601,2.95114 5.26064,2.94485 5.26456,2.93822 5.26776,2.93132 5.27025,2.9242 5.27203,2.91691 5.27309,2.90951 5.27345,2.90206 5.27309,2.8946 5.27203,2.8872 5.27025,2.87991 5.26776,2.87279 5.26456,2.86589 5.26064,2.85926 "/>
    </g>
    <path id="_332353288" class="fil1" d="M4.30576 2.84706l0.417469 0.417465 0.417465 -0.417465c0.0303661,-0.0303701 0.0796142,-0.0303701 0.10998,0 0.0303701,0.0303701 0.0303701,0.0796142 0,0.109984l-0.417465 0.417465 0.417465 0.417461c0.0303701,0.0303701 0.0303701,0.0796142 0,0.109984 -0.0303701,0.0303701 -0.0796142,0.0303701 -0.109984,0l-0.417465 -0.417461 -0.417461 0.417461c-0.0303701,0.0303701 -0.0796142,0.0303701 -0.109984,0 -0.0303701,-0.0303701 -0.0303701,-0.0796142 0,-0.109984l0.417461 -0.417461 -0.417465 -0.417465c-0.0303701,-0.0303701 -0.0303701,-0.0796142 0,-0.109984 0.0303701,-0.0303701 0.0796142,-0.0303701 0.109984,0zm-0.362287 -1.11472l0 3.36198 0 0.185677 -0.14072 -0.120984 -0.0175118 -0.0150551 -0.000161417 -0.000137795 -1.06957 -0.919583 -0.807878 0 -0.000606299 0 -0.137886 0c-0.0594685,0 -0.113469,-0.0242638 -0.152563,-0.0633622 -0.0390984,-0.0390945 -0.0633622,-0.0930945 -0.0633622,-0.152563l0 -1.19011c0,-0.0594685 0.0242638,-0.113472 0.0633622,-0.152563 0.0390945,-0.0390984 0.0930945,-0.0633622 0.152563,-0.0633622l0.137886 0 0.00290945 0 0.805756 0 1.06939 -0.919429 0.00306693 -0.0026378 0.0146063 -0.0125591 0.14072 -0.120984 0 0.185677z"/>
   </g>
  </g>
  <path class="fil2" d="M3.41333 0c1.88513,0 3.41333,1.5282 3.41333,3.41333 0,1.88513 -1.5282,3.41333 -3.41333,3.41333 -1.88513,0 -3.41333,-1.5282 -3.41333,-3.41333 0,-1.88513 1.5282,-3.41333 3.41333,-3.41333z"/>
  <path class="fil3" d="M5.25067 2.95705c0.0303701,-0.0303701 0.0303701,-0.0796142 0,-0.109984 -0.0303661,-0.0303701 -0.0796142,-0.0303701 -0.10998,0l-0.944913 0.944909c-0.0303701,0.0303701 -0.0303701,0.0796142 0,0.109984 0.0303701,0.0303701 0.0796142,0.0303701 0.109984,0l0.944909 -0.944909z"/>
  <path class="fil3" d="M4.30576 2.84706c-0.0303701,-0.0303701 -0.0796142,-0.0303701 -0.109984,0 -0.0303701,0.0303701 -0.0303701,0.0796142 0,0.109984l0.944913 0.944909c0.0303701,0.0303701 0.0796142,0.0303701 0.109984,0 0.0303701,-0.0303701 0.0303701,-0.0796142 0,-0.109984l-0.944913 -0.944909z"/>
  <polygon class="fil3" points="3.78508,1.68284 3.78815,1.6802 3.80275,1.66765 3.94347,1.54666 3.94347,1.73234 3.94347,5.09432 3.94347,5.28 3.80275,5.15901 3.78524,5.14396 3.78508,5.14382 "/>
  <polygon class="fil4" points="3.78508,3.41333 3.78508,5.14382 2.7155,4.22424 1.90763,4.22424 1.90702,4.22424 1.90702,3.41333 "/>
  <polygon class="fil5" points="1.90702,2.60227 1.90993,2.60227 2.71569,2.60227 3.78508,1.68284 3.78508,3.46013 3.78508,3.46076 1.90702,3.46076 1.90702,3.45815 "/>
  <path class="fil3" d="M1.76913 2.60227l0.137886 0 0 1.62196 -0.137886 0c-0.0594685,0 -0.113469,-0.0242638 -0.152563,-0.0633622 -0.0390984,-0.0390945 -0.0633622,-0.0930945 -0.0633622,-0.152563l0 -1.19011c0,-0.0594685 0.0242638,-0.113472 0.0633622,-0.152563 0.0390945,-0.0390984 0.0930945,-0.0633622 0.152563,-0.0633622z"/>
 </g>
</svg>
