<?xml version="1.0" encoding="UTF-8"?>
<!DOCTYPE svg PUBLIC "-//W3C//DTD SVG 1.1//EN" "http://www.w3.org/Graphics/SVG/1.1/DTD/svg11.dtd">
<!-- Creator: CorelDRAW -->
<svg xmlns="http://www.w3.org/2000/svg" xml:space="preserve" width="6.82666in" height="6.82666in" style="shape-rendering:geometricPrecision; text-rendering:geometricPrecision; image-rendering:optimizeQuality; fill-rule:evenodd; clip-rule:evenodd"
viewBox="0 0 6.82666 6.82666"
 xmlns:xlink="http://www.w3.org/1999/xlink">
 <defs>
  <style type="text/css">
   <![CDATA[
    .fil2 {fill:none}
    .fil1 {fill:#EF6C00}
    .fil0 {fill:#FB8C00}
    .fil4 {fill:#00A1A2;fill-rule:nonzero}
    .fil3 {fill:#00C9CA;fill-rule:nonzero}
   ]]>
  </style>
   <clipPath id="id0">
    <path d="M3.41333 0c1.88513,0 3.41333,1.5282 3.41333,3.41333 0,1.88513 -1.5282,3.41333 -3.41333,3.41333 -1.88513,0 -3.41333,-1.5282 -3.41333,-3.41333 0,-1.88513 1.5282,-3.41333 3.41333,-3.41333z"/>
   </clipPath>
 </defs>
 <g id="Layer_x0020_1">
  <metadata id="CorelCorpID_0Corel-Layer"/>
  <path class="fil0" d="M3.41333 0c1.88513,0 3.41333,1.5282 3.41333,3.41333 0,1.88513 -1.5282,3.41333 -3.41333,3.41333 -1.88513,0 -3.41333,-1.5282 -3.41333,-3.41333 0,-1.88513 1.5282,-3.41333 3.41333,-3.41333z"/>
  <g style="clip-path:url(#id0)">
   <g id="_332350552">
    <g>
     <polygon id="_3314253601" class="fil1" points="4.89843,3.46882 8.6847,7.25509 8.66393,7.26709 4.87766,3.48081 "/>
     <polygon id="_331425000" class="fil1" points="4.87766,3.48081 8.66393,7.26709 7.16914,8.1301 3.38287,4.34383 "/>
     <polygon id="_331426224" class="fil1" points="5.05898,1.66759 8.84525,5.45387 8.84525,9.06627 5.05898,5.28 "/>
     <polygon id="_331425936" class="fil1" points="5.05898,5.28 8.84525,9.06627 8.6847,9.06627 4.89843,5.28 "/>
     <polygon id="_331426320" class="fil1" points="3.38287,4.34383 7.16914,8.1301 5.67436,8.99311 1.88809,5.20684 "/>
     <polygon id="_331426200" class="fil1" points="1.88809,5.20684 5.67436,8.99311 5.55394,9.06263 1.76768,5.27636 "/>
    </g>
    <polygon id="_332351440" class="fil1" points="1.88809,1.61619 3.38287,2.4792 4.87766,3.34221 4.89843,3.3542 4.89843,1.66759 5.05898,1.66759 5.05898,5.28 4.89843,5.28 4.89843,3.46882 4.87766,3.48081 3.38287,4.34383 1.88809,5.20684 1.76768,5.27636 1.76768,5.13754 1.76768,3.41152 1.76768,3.41035 1.76768,1.68548 1.76768,1.54666 "/>
   </g>
  </g>
  <path class="fil2" d="M3.41333 0c1.88513,0 3.41333,1.5282 3.41333,3.41333 0,1.88513 -1.5282,3.41333 -3.41333,3.41333 -1.88513,0 -3.41333,-1.5282 -3.41333,-3.41333 0,-1.88513 1.5282,-3.41333 3.41333,-3.41333z"/>
  <polygon class="fil3" points="1.76768,3.41152 1.76768,3.41035 1.76768,1.68548 1.76768,1.54666 1.88809,1.61619 3.38287,2.4792 4.87766,3.34221 4.99319,3.40892 4.99769,3.41152 "/>
  <polygon class="fil4" points="4.87766,3.48081 3.38287,4.34383 1.88809,5.20684 1.76768,5.27636 1.76768,5.13754 1.76768,3.41152 4.99769,3.41152 "/>
  <polygon class="fil4" points="5.05898,1.66759 5.05898,5.28 4.89843,5.28 4.89843,1.66759 "/>
 </g>
</svg>
