<?xml version="1.0" encoding="UTF-8"?>
<!DOCTYPE svg PUBLIC "-//W3C//DTD SVG 1.1//EN" "http://www.w3.org/Graphics/SVG/1.1/DTD/svg11.dtd">
<!-- Creator: CorelDRAW -->
<svg xmlns="http://www.w3.org/2000/svg" xml:space="preserve" width="6.82666in" height="6.82666in" style="shape-rendering:geometricPrecision; text-rendering:geometricPrecision; image-rendering:optimizeQuality; fill-rule:evenodd; clip-rule:evenodd"
viewBox="0 0 6.82666 6.82666"
 xmlns:xlink="http://www.w3.org/1999/xlink">
 <defs>
  <style type="text/css">
   <![CDATA[
    .fil2 {fill:none}
    .fil1 {fill:#3E2723}
    .fil0 {fill:#5D4037}
    .fil4 {fill:#00A1A2;fill-rule:nonzero}
    .fil3 {fill:#00C9CA;fill-rule:nonzero}
   ]]>
  </style>
   <clipPath id="id0">
    <path d="M3.41333 0c1.88513,0 3.41333,1.5282 3.41333,3.41333 0,1.88513 -1.5282,3.41333 -3.41333,3.41333 -1.88513,0 -3.41333,-1.5282 -3.41333,-3.41333 0,-1.88513 1.5282,-3.41333 3.41333,-3.41333z"/>
   </clipPath>
 </defs>
 <g id="Layer_x0020_1">
  <metadata id="CorelCorpID_0Corel-Layer"/>
  <path class="fil0" d="M3.41333 0c1.88513,0 3.41333,1.5282 3.41333,3.41333 0,1.88513 -1.5282,3.41333 -3.41333,3.41333 -1.88513,0 -3.41333,-1.5282 -3.41333,-3.41333 0,-1.88513 1.5282,-3.41333 3.41333,-3.41333z"/>
  <g style="clip-path:url(#id0)">
   <g id="_332352448">
    <g>
     <polygon id="_3314316001" class="fil1" points="3.10222,3.41333 6.88849,7.1996 6.88849,9.06627 3.10222,5.28 "/>
     <polygon id="_331431288" class="fil1" points="4.58,5.28 8.36627,9.06627 7.51071,9.06627 3.72444,5.28 "/>
     <polygon id="_331432968" class="fil1" points="3.10222,1.54666 6.88849,5.33293 6.88849,7.19757 3.10222,3.4113 "/>
     <polygon id="_331432512" class="fil1" points="4.58,3.41202 8.36627,7.19829 8.36627,7.1996 4.58,3.41333 "/>
     <polygon id="_331432824" class="fil1" points="3.10222,3.4113 6.88849,7.19757 6.88849,7.1996 3.10222,3.41333 "/>
     <polygon id="_331432752" class="fil1" points="3.10222,5.28 6.88849,9.06627 6.03293,9.06627 2.24667,5.28 "/>
     <polygon id="_331432608" class="fil1" points="4.58,1.54666 8.36627,5.33293 8.36627,7.19829 4.58,3.41202 "/>
     <polygon id="_331432632" class="fil1" points="4.58,3.41333 8.36627,7.1996 8.36627,9.06627 4.58,5.28 "/>
    </g>
    <path id="_332351752" class="fil1" d="M4.58 3.41333l0 1.86667 -0.855559 0 0 -1.86667 0 -0.00150394 0 -1.86517 0.855559 0 0 1.86535 0 0.00131496zm-1.47778 0l0 1.86667 -0.855559 0 0 -1.86667 0 -0.00222441 0 -1.86444 0.855559 0 0 1.86463 0 0.00203543z"/>
   </g>
  </g>
  <path class="fil2" d="M3.41333 0c1.88513,0 3.41333,1.5282 3.41333,3.41333 0,1.88513 -1.5282,3.41333 -3.41333,3.41333 -1.88513,0 -3.41333,-1.5282 -3.41333,-3.41333 0,-1.88513 1.5282,-3.41333 3.41333,-3.41333z"/>
  <polygon class="fil3" points="4.58,3.41333 4.58,5.28 3.72444,5.28 3.72444,3.41333 "/>
  <polygon class="fil4" points="4.58,1.54666 4.58,3.41202 4.58,3.41333 3.72444,3.41333 3.72444,3.41183 3.72444,1.54666 "/>
  <polygon class="fil3" points="3.10222,3.41333 3.10222,5.28 2.24667,5.28 2.24667,3.41333 "/>
  <polygon class="fil4" points="3.10222,1.54666 3.10222,3.4113 3.10222,3.41333 2.24667,3.41333 2.24667,3.41111 2.24667,1.54666 "/>
 </g>
</svg>
