<?xml version="1.0" encoding="UTF-8"?>
<!DOCTYPE svg PUBLIC "-//W3C//DTD SVG 1.1//EN" "http://www.w3.org/Graphics/SVG/1.1/DTD/svg11.dtd">
<!-- Creator: CorelDRAW -->
<svg xmlns="http://www.w3.org/2000/svg" xml:space="preserve" width="6.82666in" height="6.82666in" style="shape-rendering:geometricPrecision; text-rendering:geometricPrecision; image-rendering:optimizeQuality; fill-rule:evenodd; clip-rule:evenodd"
viewBox="0 0 6.82666 6.82666"
 xmlns:xlink="http://www.w3.org/1999/xlink">
 <defs>
  <style type="text/css">
   <![CDATA[
    .fil2 {fill:none}
    .fil1 {fill:#33691E}
    .fil0 {fill:#558B2F}
    .fil4 {fill:#00A1A2;fill-rule:nonzero}
    .fil3 {fill:#00C9CA;fill-rule:nonzero}
   ]]>
  </style>
   <clipPath id="id0">
    <path d="M3.41333 0c1.88513,0 3.41333,1.5282 3.41333,3.41333 0,1.88513 -1.5282,3.41333 -3.41333,3.41333 -1.88513,0 -3.41333,-1.5282 -3.41333,-3.41333 0,-1.88513 1.5282,-3.41333 3.41333,-3.41333z"/>
   </clipPath>
 </defs>
 <g id="Layer_x0020_1">
  <metadata id="CorelCorpID_0Corel-Layer"/>
  <path class="fil0" d="M3.41333 0c1.88513,0 3.41333,1.5282 3.41333,3.41333 0,1.88513 -1.5282,3.41333 -3.41333,3.41333 -1.88513,0 -3.41333,-1.5282 -3.41333,-3.41333 0,-1.88513 1.5282,-3.41333 3.41333,-3.41333z"/>
  <g style="clip-path:url(#id0)">
   <g id="_332350528">
    <g>
     <polygon id="_3314245921" class="fil1" points="5.02991,3.41333 8.81618,7.1996 8.69603,7.26897 4.90976,3.4827 "/>
     <polygon id="_331424808" class="fil1" points="4.90976,3.4827 8.69603,7.26897 7.19979,8.13283 3.41352,4.34656 "/>
     <polygon id="_331425168" class="fil1" points="3.41352,4.34656 7.19979,8.13283 5.70356,8.99668 1.91729,5.21041 "/>
     <polygon id="_331425216" class="fil1" points="1.91729,5.21041 5.70356,8.99668 5.58302,9.06627 1.79676,5.28 "/>
    </g>
    <polygon id="_332350768" class="fil1" points="1.91729,1.61625 3.41352,2.48011 4.90976,3.34396 5.02541,3.41073 5.02991,3.41333 4.90976,3.4827 3.41352,4.34656 1.91729,5.21041 1.79676,5.28 1.79676,5.14104 1.79676,3.41333 1.79676,3.41217 1.79676,1.68562 1.79676,1.54666 "/>
   </g>
  </g>
  <path class="fil2" d="M3.41333 0c1.88513,0 3.41333,1.5282 3.41333,3.41333 0,1.88513 -1.5282,3.41333 -3.41333,3.41333 -1.88513,0 -3.41333,-1.5282 -3.41333,-3.41333 0,-1.88513 1.5282,-3.41333 3.41333,-3.41333z"/>
  <polygon class="fil3" points="1.79676,3.41333 1.79676,3.41217 1.79676,1.68562 1.79676,1.54666 1.91729,1.61625 3.41352,2.48011 4.90976,3.34396 5.02541,3.41073 5.02991,3.41333 "/>
  <polygon class="fil4" points="4.90976,3.4827 3.41352,4.34656 1.91729,5.21041 1.79676,5.28 1.79676,5.14104 1.79676,3.41333 5.02991,3.41333 "/>
 </g>
</svg>
