<?xml version="1.0" encoding="UTF-8"?>
<!DOCTYPE svg PUBLIC "-//W3C//DTD SVG 1.1//EN" "http://www.w3.org/Graphics/SVG/1.1/DTD/svg11.dtd">
<!-- Creator: CorelDRAW -->
<svg xmlns="http://www.w3.org/2000/svg" xml:space="preserve" width="6.82666in" height="6.82666in" style="shape-rendering:geometricPrecision; text-rendering:geometricPrecision; image-rendering:optimizeQuality; fill-rule:evenodd; clip-rule:evenodd"
viewBox="0 0 6.82666 6.82666"
 xmlns:xlink="http://www.w3.org/1999/xlink">
 <defs>
  <style type="text/css">
   <![CDATA[
    .fil2 {fill:none}
    .fil1 {fill:#1A237E}
    .fil0 {fill:#303F9F}
    .fil4 {fill:#00A1A2;fill-rule:nonzero}
    .fil3 {fill:#00C9CA;fill-rule:nonzero}
   ]]>
  </style>
   <clipPath id="id0">
    <path d="M3.41333 0c1.88513,0 3.41333,1.5282 3.41333,3.41333 0,1.88513 -1.5282,3.41333 -3.41333,3.41333 -1.88513,0 -3.41333,-1.5282 -3.41333,-3.41333 0,-1.88513 1.5282,-3.41333 3.41333,-3.41333z"/>
   </clipPath>
 </defs>
 <g id="Layer_x0020_1">
  <metadata id="CorelCorpID_0Corel-Layer"/>
  <path class="fil0" d="M3.41333 0c1.88513,0 3.41333,1.5282 3.41333,3.41333 0,1.88513 -1.5282,3.41333 -3.41333,3.41333 -1.88513,0 -3.41333,-1.5282 -3.41333,-3.41333 0,-1.88513 1.5282,-3.41333 3.41333,-3.41333z"/>
  <g style="clip-path:url(#id0)">
   <g id="_332350216">
    <g>
     <polygon id="_3314231041" class="fil1" points="5.05899,3.33001 8.84526,7.11628 8.84526,7.11744 5.05899,3.33117 "/>
     <polygon id="_331423152" class="fil1" points="1.92824,1.58725 5.7145,5.37352 5.7145,7.06013 1.92824,3.27386 "/>
     <polygon id="_331424136" class="fil1" points="5.05899,5.0572 8.84526,8.84347 8.84526,8.98229 5.05899,5.19602 "/>
     <polygon id="_331424112" class="fil1" points="5.05899,5.19602 8.84526,8.98229 8.72484,8.91277 4.93857,5.1265 "/>
     <polygon id="_331424160" class="fil1" points="4.93857,5.1265 8.72484,8.91277 7.23006,8.04976 3.44379,4.26349 "/>
     <polygon id="_331424640" class="fil1" points="3.44379,4.26349 7.23006,8.04976 5.73527,7.18674 1.949,3.40047 "/>
     <polygon id="_331424544" class="fil1" points="1.949,3.40047 5.73527,7.18674 5.7145,7.17475 1.92824,3.38848 "/>
     <polygon id="_331424352" class="fil1" points="1.92824,3.38848 5.7145,7.17475 5.7145,8.98593 1.92824,5.19965 "/>
     <polygon id="_331424496" class="fil1" points="1.92824,5.19965 5.7145,8.98593 5.55395,8.98593 1.76768,5.19965 "/>
     <polygon id="_331424472" class="fil1" points="5.05899,3.33117 8.84526,7.11744 8.84526,8.84347 5.05899,5.0572 "/>
     <polygon id="_331424064" class="fil1" points="5.05899,1.46632 8.84526,5.25259 8.84526,5.39141 5.05899,1.60514 "/>
     <polygon id="_331424784" class="fil1" points="5.05899,1.60514 8.84526,5.39141 8.84526,7.11628 5.05899,3.33001 "/>
    </g>
    <polygon id="_332350288" class="fil1" points="5.05899,3.33001 5.05899,3.33117 5.05899,5.0572 5.05899,5.19602 4.93857,5.1265 3.44379,4.26349 1.949,3.40047 1.92824,3.38848 1.92824,5.19965 1.76768,5.19965 1.76768,1.58725 1.92824,1.58725 1.92824,3.27386 1.949,3.26187 3.44379,2.39886 4.93857,1.53584 5.05899,1.46632 5.05899,1.60514 "/>
   </g>
  </g>
  <path class="fil2" d="M3.41333 0c1.88513,0 3.41333,1.5282 3.41333,3.41333 0,1.88513 -1.5282,3.41333 -3.41333,3.41333 -1.88513,0 -3.41333,-1.5282 -3.41333,-3.41333 0,-1.88513 1.5282,-3.41333 3.41333,-3.41333z"/>
  <polygon class="fil3" points="5.05899,3.33117 5.05899,3.33001 5.05899,1.60514 5.05899,1.46632 4.93857,1.53584 3.44379,2.39886 1.949,3.26187 1.83347,3.32857 1.82898,3.33117 "/>
  <polygon class="fil4" points="1.949,3.40047 3.44379,4.26349 4.93857,5.1265 5.05899,5.19602 5.05899,5.0572 5.05899,3.33117 1.82898,3.33117 "/>
  <polygon class="fil4" points="1.76768,1.58725 1.76768,5.19965 1.92824,5.19965 1.92824,1.58725 "/>
 </g>
</svg>
