<?xml version="1.0" encoding="UTF-8"?>
<!DOCTYPE svg PUBLIC "-//W3C//DTD SVG 1.1//EN" "http://www.w3.org/Graphics/SVG/1.1/DTD/svg11.dtd">
<!-- Creator: CorelDRAW -->
<svg xmlns="http://www.w3.org/2000/svg" xml:space="preserve" width="6.82666in" height="6.82666in" style="shape-rendering:geometricPrecision; text-rendering:geometricPrecision; image-rendering:optimizeQuality; fill-rule:evenodd; clip-rule:evenodd"
viewBox="0 0 6.82666 6.82666"
 xmlns:xlink="http://www.w3.org/1999/xlink">
 <defs>
  <style type="text/css">
   <![CDATA[
    .fil2 {fill:none}
    .fil1 {fill:#303F9F}
    .fil0 {fill:#5C6BC0}
    .fil4 {fill:#C2C2C2;fill-rule:nonzero}
    .fil5 {fill:#CCCCCC;fill-rule:nonzero}
    .fil6 {fill:#E8382C;fill-rule:nonzero}
    .fil3 {fill:#F44336;fill-rule:nonzero}
   ]]>
  </style>
   <clipPath id="id0">
    <path d="M3.41333 0c1.88513,0 3.41333,1.5282 3.41333,3.41333 0,1.88513 -1.5282,3.41333 -3.41333,3.41333 -1.88513,0 -3.41333,-1.5282 -3.41333,-3.41333 0,-1.88513 1.5282,-3.41333 3.41333,-3.41333z"/>
   </clipPath>
 </defs>
 <g id="Layer_x0020_1">
  <metadata id="CorelCorpID_0Corel-Layer"/>
  <path class="fil0" d="M3.41333 0c1.88513,0 3.41333,1.5282 3.41333,3.41333 0,1.88513 -1.5282,3.41333 -3.41333,3.41333 -1.88513,0 -3.41333,-1.5282 -3.41333,-3.41333 0,-1.88513 1.5282,-3.41333 3.41333,-3.41333z"/>
  <g style="clip-path:url(#id0)">
   <g id="_332353864">
    <g>
     <polygon id="_3314371441" class="fil1" points="4.9116,2.14528 8.69787,5.93155 8.70793,5.94502 8.71785,5.95883 8.72765,5.97298 8.73733,5.98746 8.74687,6.00228 8.75628,6.01742 8.76556,6.03289 8.77471,6.04867 8.78372,6.06476 8.7926,6.08115 8.80135,6.09785 8.80995,6.11485 8.81842,6.13215 8.82675,6.14973 8.83493,6.16759 8.84298,6.18574 8.85088,6.20416 8.85863,6.22285 8.86625,6.24181 8.87371,6.26103 8.88103,6.2805 8.8882,6.30023 8.89522,6.3202 8.90208,6.34042 8.9088,6.36088 8.91536,6.38157 8.92177,6.40249 8.92802,6.42363 8.93411,6.445 8.94005,6.46658 8.94582,6.48837 8.95144,6.51037 5.16517,2.7241 5.15956,2.7021 5.15378,2.68031 5.14784,2.65873 5.14175,2.63736 5.1355,2.61622 5.12909,2.5953 5.12253,2.57461 5.11581,2.55415 5.10895,2.53393 5.10193,2.51396 5.09476,2.49423 5.08744,2.47476 5.07998,2.45554 5.07237,2.43658 5.06461,2.41789 5.05671,2.39946 5.04867,2.38132 5.04048,2.36346 5.03215,2.34587 5.02369,2.32858 5.01508,2.31158 5.00633,2.29488 4.99746,2.27848 4.98844,2.26239 4.9793,2.24661 4.97001,2.23115 4.9606,2.21601 4.95106,2.20119 4.94139,2.1867 4.93158,2.17256 4.92166,2.15874 "/>
     <polygon id="_331437504" class="fil1" points="3.96159,1.73234 7.74785,5.51861 7.74785,8.88059 3.96159,5.09432 "/>
     <polygon id="_331438392" class="fil1" points="4.52589,2.63595 8.31216,6.42222 8.31854,6.43078 8.32485,6.43954 8.33107,6.44852 8.33721,6.4577 8.34327,6.46709 8.34924,6.47667 8.35513,6.48646 8.36093,6.49644 8.36664,6.50661 8.37227,6.51697 8.37781,6.52752 8.38326,6.53825 8.38862,6.54916 8.39389,6.56025 8.39907,6.57152 8.40416,6.58295 8.40915,6.59456 8.41406,6.60633 8.41886,6.61827 8.42358,6.63037 8.4282,6.64262 8.43272,6.65503 8.43715,6.66759 8.44148,6.6803 8.44571,6.69316 8.44984,6.70616 8.45387,6.7193 8.45781,6.73257 8.46164,6.74599 8.46537,6.75953 8.469,6.7732 8.47252,6.787 4.68625,3.00073 4.68273,2.98693 4.6791,2.97326 4.67537,2.95972 4.67154,2.9463 4.66761,2.93302 4.66357,2.91989 4.65944,2.90689 4.65521,2.89403 4.65088,2.88132 4.64645,2.86876 4.64193,2.85635 4.63731,2.84409 4.63259,2.832 4.62779,2.82006 4.62288,2.80829 4.61789,2.79668 4.6128,2.78524 4.60762,2.77398 4.60235,2.76289 4.59699,2.75198 4.59154,2.74125 4.586,2.7307 4.58037,2.72034 4.57466,2.71017 4.56886,2.70019 4.56297,2.6904 4.557,2.68081 4.55094,2.67143 4.5448,2.66225 4.53858,2.65327 4.53228,2.64451 "/>
     <polygon id="_331438464" class="fil1" points="5.25498,3.44861 9.04125,7.23489 9.04129,7.238 9.04133,7.24112 9.04137,7.24424 9.0414,7.24737 9.04143,7.25049 9.04146,7.25361 9.04149,7.25674 9.04151,7.25986 9.04153,7.26298 9.04155,7.26611 9.04157,7.26924 9.04158,7.27237 9.04159,7.2755 9.0416,7.27863 9.0416,7.28176 9.0416,7.28489 5.25533,3.49862 5.25533,3.49549 5.25533,3.49236 5.25532,3.48923 5.25531,3.4861 5.2553,3.48297 5.25528,3.47984 5.25526,3.47671 5.25524,3.47359 5.25522,3.47046 5.25519,3.46734 5.25517,3.46422 5.25513,3.46109 5.2551,3.45797 5.25506,3.45485 5.25502,3.45173 "/>
     <polygon id="_331438032" class="fil1" points="4.68625,3.00073 8.47252,6.787 8.47563,6.79964 8.47866,6.81238 8.4816,6.82522 8.48446,6.83817 8.48724,6.85121 8.48993,6.86435 8.49253,6.87759 8.49505,6.89092 8.49748,6.90433 8.49983,6.91784 8.50209,6.93143 8.50426,6.9451 8.50634,6.95885 8.50833,6.97269 8.51023,6.9866 8.51204,7.00058 8.51376,7.01463 8.51539,7.02876 8.51692,7.04295 8.51836,7.05721 8.51971,7.07153 8.52097,7.08591 8.52213,7.10034 8.52319,7.11484 8.52416,7.12939 8.52504,7.14398 8.52581,7.15863 8.52649,7.17332 8.52707,7.18806 8.52756,7.20284 8.52794,7.21767 8.52822,7.23252 4.74195,3.44625 4.74167,3.43139 4.74129,3.41657 4.7408,3.40179 4.74022,3.38705 4.73954,3.37236 4.73877,3.35771 4.73789,3.34311 4.73693,3.32857 4.73586,3.31407 4.7347,3.29963 4.73344,3.28526 4.73209,3.27094 4.73065,3.25668 4.72912,3.24249 4.72749,3.22836 4.72577,3.21431 4.72396,3.20033 4.72206,3.18642 4.72007,3.17258 4.71799,3.15883 4.71582,3.14516 4.71356,3.13157 4.71122,3.11806 4.70878,3.10465 4.70626,3.09131 4.70366,3.07808 4.70097,3.06494 4.69819,3.0519 4.69533,3.03895 4.69239,3.02611 4.68936,3.01337 "/>
     <polygon id="_331438296" class="fil1" points="4.74222,3.48071 8.52849,7.26698 8.52844,7.2812 8.52831,7.2954 8.52808,7.30956 8.52776,7.3237 8.52735,7.3378 8.52685,7.35187 8.52626,7.36591 8.52559,7.3799 8.52482,7.39385 8.52397,7.40776 8.52303,7.42163 8.522,7.43545 8.52088,7.44922 8.51968,7.46294 8.51839,7.47661 8.51702,7.49022 8.51557,7.50377 8.51402,7.51727 8.5124,7.5307 8.51069,7.54407 8.5089,7.55738 8.50702,7.57061 8.50507,7.58378 8.50303,7.59688 8.50091,7.60991 8.49871,7.62285 8.49643,7.63572 8.49407,7.64852 8.49163,7.66123 8.48911,7.67385 8.48651,7.68639 8.48383,7.69885 4.69757,3.91257 4.70024,3.90012 4.70284,3.88758 4.70536,3.87496 4.7078,3.86224 4.71016,3.84945 4.71244,3.83658 4.71464,3.82363 4.71676,3.81061 4.7188,3.79751 4.72076,3.78434 4.72263,3.77111 4.72442,3.7578 4.72613,3.74443 4.72776,3.731 4.7293,3.7175 4.73076,3.70394 4.73213,3.69033 4.73341,3.67667 4.73461,3.66295 4.73573,3.64918 4.73676,3.63536 4.7377,3.62149 4.73855,3.60758 4.73932,3.59363 4.74,3.57963 4.74058,3.5656 4.74108,3.55153 4.74149,3.53743 4.74181,3.52329 4.74204,3.50913 4.74218,3.49493 "/>
     <polygon id="_331437888" class="fil1" points="4.97859,4.75195 8.76486,8.53822 8.61814,8.45152 4.83187,4.66525 "/>
     <polygon id="_331438584" class="fil1" points="3.96159,1.54666 7.74785,5.33293 7.74785,5.51861 3.96159,1.73234 "/>
     <polygon id="_331438512" class="fil1" points="4.74195,3.44625 8.52822,7.23252 8.52826,7.23489 4.74199,3.44861 "/>
     <polygon id="_331438536" class="fil1" points="4.74199,3.44861 8.52826,7.23489 8.52831,7.23889 8.52836,7.24289 8.5284,7.2469 8.52843,7.25091 8.52846,7.25493 8.52848,7.25894 8.52849,7.26296 8.52849,7.26698 4.74222,3.48071 4.74222,3.47669 4.74221,3.47267 4.74219,3.46865 4.74217,3.46464 4.74213,3.46063 4.74209,3.45662 4.74204,3.45262 "/>
     <polygon id="_331438872" class="fil1" points="5.25533,3.49862 9.0416,7.28489 9.04153,7.30788 9.04131,7.33082 9.04094,7.35372 9.04043,7.37656 9.03976,7.39935 9.03896,7.42209 9.03801,7.44476 9.03692,7.46737 9.03568,7.48991 9.0343,7.51237 9.03279,7.53477 9.03113,7.55709 9.02933,7.57933 9.02739,7.60148 9.02532,7.62355 9.02311,7.64552 9.02076,7.66741 9.01827,7.68919 9.01565,7.71088 9.01289,7.73246 9.01,7.75394 9.00698,7.7753 9.00383,7.79656 9.00054,7.81769 8.99712,7.8387 8.99357,7.85959 8.98989,7.88036 8.98609,7.90099 8.98215,7.9215 8.97809,7.94186 8.9739,7.96208 8.96959,7.98217 5.18332,4.19589 5.18763,4.17581 5.19182,4.15559 5.19589,4.13522 5.19982,4.11472 5.20363,4.09409 5.20731,4.07332 5.21085,4.05243 5.21427,4.03142 5.21756,4.01028 5.22071,3.98903 5.22374,3.96767 5.22663,3.94619 5.22938,3.92461 5.232,3.90292 5.23449,3.88114 5.23684,3.85925 5.23905,3.83728 5.24113,3.81521 5.24306,3.79306 5.24486,3.77082 5.24652,3.7485 5.24804,3.7261 5.24941,3.70363 5.25065,3.68109 5.25174,3.65848 5.25269,3.63581 5.2535,3.61308 5.25416,3.59029 5.25467,3.56744 5.25504,3.54455 5.25526,3.52161 "/>
     <polygon id="_331438800" class="fil1" points="4.69757,3.91257 8.48383,7.69885 8.48102,7.71147 8.47813,7.724 8.47515,7.73644 8.47209,7.74878 8.46895,7.76103 8.46573,7.77318 8.46243,7.78522 8.45905,7.79717 8.45559,7.80901 8.45205,7.82074 8.44843,7.83237 8.44474,7.84388 8.44097,7.85528 8.43712,7.86656 8.43319,7.87773 8.42919,7.88877 8.42511,7.8997 8.42096,7.9105 8.41673,7.92117 8.41243,7.93172 8.40806,7.94214 8.40361,7.95242 8.39909,7.96257 8.39449,7.97259 8.38983,7.98246 8.38509,7.9922 8.38028,8.00179 8.3754,8.01124 8.37045,8.02054 8.36543,8.02969 8.36035,8.03869 8.35519,8.04754 4.56892,4.26127 4.57408,4.25242 4.57917,4.24342 4.58419,4.23427 4.58913,4.22496 4.59401,4.21552 4.59882,4.20593 4.60356,4.19619 4.60822,4.18631 4.61282,4.1763 4.61734,4.16615 4.62179,4.15587 4.62617,4.14545 4.63046,4.1349 4.63469,4.12423 4.63885,4.11343 4.64293,4.1025 4.64693,4.09146 4.65085,4.08029 4.6547,4.069 4.65847,4.05761 4.66217,4.04609 4.66578,4.03447 4.66932,4.02274 4.67278,4.0109 4.67616,3.99895 4.67946,3.98691 4.68269,3.97476 4.68582,3.96251 4.68888,3.95017 4.69186,3.93773 4.69476,3.9252 "/>
     <polygon id="_331438776" class="fil1" points="4.56892,4.26127 8.35519,8.04754 8.20847,7.96084 4.4222,4.17457 "/>
     <polygon id="_331439064" class="fil1" points="5.18332,4.19589 8.96959,7.98217 8.96509,8.00236 8.96046,8.02241 8.9557,8.0423 8.95081,8.06204 8.9458,8.08162 8.94066,8.10104 8.93539,8.12029 8.93,8.13937 8.92448,8.15829 8.91884,8.17702 8.91308,8.19558 8.90719,8.21396 8.90118,8.23216 8.89505,8.25016 8.8888,8.26797 8.88243,8.28559 8.87594,8.30301 8.86934,8.32023 8.86261,8.33724 8.85577,8.35404 8.84881,8.37064 8.84174,8.38702 8.83456,8.40317 8.82726,8.41911 8.81985,8.43482 8.81232,8.4503 8.80469,8.46556 8.79694,8.48057 8.78908,8.49535 8.78111,8.50989 8.77304,8.52418 8.76486,8.53822 4.97859,4.75195 4.98677,4.73791 4.99485,4.72361 5.00281,4.70908 5.01067,4.6943 5.01842,4.67928 5.02606,4.66403 5.03358,4.64855 5.04099,4.63284 5.04829,4.6169 5.05548,4.60074 5.06255,4.58437 5.0695,4.56777 5.07635,4.55097 5.08307,4.53396 5.08968,4.51674 5.09617,4.49932 5.10254,4.4817 5.10878,4.46389 5.11491,4.44589 5.12092,4.42769 5.12681,4.40931 5.13257,4.39075 5.13822,4.37202 5.14373,4.3531 5.14913,4.33402 5.15439,4.31476 5.15953,4.29535 5.16455,4.27576 5.16943,4.25603 5.17419,4.23613 5.17882,4.21609 "/>
     <polygon id="_331438704" class="fil1" points="5.25496,3.44743 9.04123,7.2337 9.04125,7.23489 5.25498,3.44861 "/>
     <polygon id="_331439088" class="fil1" points="3.96159,5.09432 7.74785,8.88059 7.74785,9.06627 3.96159,5.28 "/>
     <polygon id="_331438992" class="fil1" points="3.96159,5.28 7.74785,9.06627 7.60713,8.94528 3.82087,5.15901 "/>
     <polygon id="_331439232" class="fil1" points="3.82087,5.15901 7.60713,8.94528 7.58962,8.93023 3.80335,5.14396 "/>
     <polygon id="_331438968" class="fil1" points="3.80335,5.14396 7.58962,8.93023 7.58946,8.93009 3.80319,5.14382 "/>
     <polygon id="_331439016" class="fil1" points="3.80319,5.14382 7.58946,8.93009 6.51989,8.01051 2.73362,4.22424 "/>
     <polygon id="_331439952" class="fil1" points="2.73362,4.22424 6.51989,8.01051 5.71201,8.01051 1.92574,4.22424 "/>
     <polygon id="_331439592" class="fil1" points="1.92574,4.22424 5.71201,8.01051 5.71141,8.01051 1.92514,4.22424 "/>
     <polygon id="_331439760" class="fil1" points="1.92514,4.22424 5.71141,8.01051 5.57352,8.01051 1.78725,4.22424 "/>
     <polygon id="_331440048" class="fil1" points="1.78725,4.22424 5.57352,8.01051 5.56796,8.01044 5.56244,8.01022 5.55694,8.00987 5.55149,8.00939 5.54608,8.00877 5.54071,8.00801 5.53538,8.00712 5.53009,8.00611 5.52485,8.00496 5.51966,8.00369 5.51451,8.00229 5.50942,8.00077 5.50438,7.99913 5.4994,7.99737 5.49447,7.99548 5.48959,7.99349 5.48478,7.99138 5.48004,7.98915 5.47535,7.98682 5.47073,7.98437 5.46617,7.98182 5.46169,7.97917 5.45727,7.97641 5.45292,7.97354 5.44865,7.97057 5.44446,7.96751 5.44034,7.96435 5.4363,7.96109 5.43233,7.95774 1.64607,4.17147 1.65003,4.17482 1.65407,4.17808 1.65819,4.18124 1.66239,4.1843 1.66665,4.18727 1.671,4.19013 1.67542,4.19289 1.67991,4.19555 1.68446,4.1981 1.68908,4.20055 1.69377,4.20288 1.69852,4.20511 1.70333,4.20722 1.7082,4.20921 1.71313,4.21109 1.71811,4.21285 1.72315,4.2145 1.72824,4.21602 1.73339,4.21742 1.73858,4.21869 1.74382,4.21983 1.74911,4.22085 1.75444,4.22174 1.75981,4.2225 1.76522,4.22312 1.77068,4.2236 1.77617,4.22395 1.78169,4.22417 "/>
     <polygon id="_331439688" class="fil1" points="5.16517,2.7241 8.95144,6.51037 8.95648,6.53084 8.96138,6.55149 8.96615,6.57231 8.97078,6.59329 8.97528,6.61444 8.97963,6.63575 8.98385,6.65721 8.98793,6.67883 8.99186,6.70059 8.99565,6.7225 8.9993,6.74456 9.00281,6.76674 9.00617,6.78907 9.00938,6.81152 9.01245,6.8341 9.01537,6.8568 9.01814,6.87963 9.02076,6.90256 9.02323,6.92561 9.02555,6.94877 9.02772,6.97203 9.02973,6.99539 9.03159,7.01885 9.0333,7.0424 9.03485,7.06604 9.03624,7.08976 9.03747,7.11357 9.03854,7.13746 9.03946,7.16142 9.04021,7.18544 9.0408,7.20954 9.04123,7.2337 5.25496,3.44743 5.25454,3.42327 5.25394,3.39917 5.25319,3.37515 5.25228,3.35119 5.2512,3.3273 5.24997,3.30349 5.24858,3.27977 5.24703,3.25613 5.24532,3.23257 5.24346,3.20912 5.24145,3.18576 5.23928,3.1625 5.23696,3.13934 5.23449,3.11629 5.23187,3.09335 5.2291,3.07053 5.22618,3.04783 5.22311,3.02525 5.2199,3.0028 5.21654,2.98047 5.21304,2.95828 5.20939,2.93623 5.20559,2.91432 5.20166,2.89256 5.19758,2.87094 5.19337,2.84948 5.18901,2.82817 5.18452,2.80702 5.17989,2.78604 5.17511,2.76522 5.17021,2.74457 "/>
    </g>
    <path id="_332353336" class="fil1" d="M4.9116 2.14528c0.107909,0.141807 0.19452,0.343094 0.253571,0.578823 0.0544606,0.217417 0.0860827,0.465295 0.0897913,0.723335l1.5748e-005 0.0011811c0.000232283,0.0166299 0.000354331,0.0332992 0.000354331,0.0500079 0,0.245417 -0.0253189,0.483843 -0.0720157,0.697272 -0.0472953,0.216177 -0.116874,0.407606 -0.204728,0.556055l-0.14672 -0.0866969c0.0784213,-0.132508 0.14122,-0.306555 0.18472,-0.50537 0.0440945,-0.201551 0.0680079,-0.427642 0.0680079,-0.66126 0,-0.0167165 -0.000125984,-0.0333858 -0.000366142,-0.0500079l-2.75591e-005 -0.0015748c-0.00367717,-0.244358 -0.0333976,-0.477846 -0.0844291,-0.681587 -0.053622,-0.214059 -0.130039,-0.393906 -0.223559,-0.516807l0.135386 -0.10337zm-0.385713 0.490677c0.0685512,0.0900945 0.123323,0.216925 0.160362,0.36478 0.0336102,0.134197 0.0532087,0.286835 0.0557008,0.44552l3.54331e-005 0.0023622c0.000153543,0.0106732 0.00023622,0.0213701 0.00023622,0.0320945 0,0.151831 -0.0157008,0.299512 -0.0446575,0.431866 -0.0295591,0.135102 -0.0732756,0.255138 -0.128646,0.348693l-0.14672 -0.0866969c0.0459331,-0.0776181 0.082878,-0.180268 0.108638,-0.298008 0.0263583,-0.12048 0.0406496,-0.255819 0.0406496,-0.395854 0,-0.0107323 -8.66142e-005,-0.0214331 -0.000251969,-0.0320945l-4.33071e-005 -0.00275591c-0.00245669,-0.144984 -0.0201496,-0.283236 -0.0503425,-0.403772 -0.0316063,-0.126185 -0.0761811,-0.231575 -0.130346,-0.30276l0.135386 -0.103374zm-0.564303 -0.903614l0 3.36198 0 0.185677 -0.14072 -0.120984 -0.0175118 -0.0150551 -0.000161417 -0.000137795 -1.06957 -0.919583 -0.807878 0 -0.000602362 0 -0.137886 0c-0.0594685,0 -0.113472,-0.0242638 -0.152563,-0.0633622 -0.0390984,-0.0390945 -0.0633661,-0.0930945 -0.0633661,-0.152563l0 -1.19011c0,-0.0594685 0.0242677,-0.113472 0.0633661,-0.152563 0.0390906,-0.0390984 0.0930945,-0.0633622 0.152563,-0.0633622l0.137886 0 0.00290551 0 0.805756 0 1.06939 -0.919433 0.00306693 -0.00263386 0.0146063 -0.0125591 0.14072 -0.120984 0 0.185677z"/>
   </g>
  </g>
  <path class="fil2" d="M3.41333 0c1.88513,0 3.41333,1.5282 3.41333,3.41333 0,1.88513 -1.5282,3.41333 -3.41333,3.41333 -1.88513,0 -3.41333,-1.5282 -3.41333,-3.41333 0,-1.88513 1.5282,-3.41333 3.41333,-3.41333z"/>
  <polygon class="fil3" points="3.80319,1.68284 3.80626,1.6802 3.82087,1.66765 3.96159,1.54666 3.96159,1.73234 3.96159,5.09432 3.96159,5.28 3.82087,5.15901 3.80335,5.14396 3.80319,5.14382 "/>
  <polygon class="fil4" points="3.80319,3.41333 3.80319,5.14382 2.73362,4.22424 1.92574,4.22424 1.92514,4.22424 1.92514,3.41333 "/>
  <polygon class="fil5" points="1.92514,2.60227 1.92804,2.60227 2.7338,2.60227 3.80319,1.68284 3.80319,3.46013 3.80319,3.46076 1.92514,3.46076 1.92514,3.45815 "/>
  <path class="fil3" d="M1.78725 2.60227l0.137886 0 0 1.62196 -0.137886 0c-0.0594685,0 -0.113472,-0.0242638 -0.152563,-0.0633622 -0.0390984,-0.0390945 -0.0633661,-0.0930945 -0.0633661,-0.152563l0 -1.19011c0,-0.0594685 0.0242677,-0.113472 0.0633661,-0.152563 0.0390906,-0.0390984 0.0930945,-0.0633622 0.152563,-0.0633622z"/>
  <path class="fil3" d="M4.57124 3.44861l-4.33071e-005 -0.00275591c-0.00245669,-0.144984 -0.0201496,-0.283236 -0.0503425,-0.403772 -0.0316063,-0.126185 -0.0761811,-0.231575 -0.130346,-0.30276l0.135386 -0.103374c0.0685512,0.0900945 0.123323,0.216925 0.160362,0.36478 0.0336102,0.134197 0.0532087,0.286835 0.0557008,0.44552l3.54331e-005 0.0023622 -0.170752 0z"/>
  <path class="fil6" d="M4.4222 4.17457c0.0459331,-0.0776181 0.082878,-0.180268 0.108638,-0.298008 0.0263583,-0.12048 0.0406496,-0.255819 0.0406496,-0.395854 0,-0.0107323 -8.66142e-005,-0.0214331 -0.000251969,-0.0320945l0.170752 0c0.000153543,0.0106732 0.00023622,0.0213701 0.00023622,0.0320945 0,0.151831 -0.0157008,0.299512 -0.0446575,0.431866 -0.0295591,0.135102 -0.0732756,0.255138 -0.128646,0.348693l-0.14672 -0.0866969z"/>
  <path class="fil3" d="M5.08423 3.44861l-2.75591e-005 -0.0015748c-0.00367717,-0.244358 -0.0333976,-0.477846 -0.0844291,-0.681587 -0.053622,-0.214059 -0.130039,-0.393906 -0.223559,-0.516807l0.135386 -0.10337c0.107909,0.141807 0.19452,0.343094 0.253571,0.578823 0.0544606,0.217417 0.0860827,0.465295 0.0897913,0.723335l1.5748e-005 0.0011811 -0.170748 0z"/>
  <path class="fil6" d="M4.83187 4.66525c0.0784213,-0.132508 0.14122,-0.306555 0.18472,-0.50537 0.0440945,-0.201551 0.0680079,-0.427642 0.0680079,-0.66126 0,-0.0167165 -0.000125984,-0.0333858 -0.000366142,-0.0500079l0.170748 0c0.000232283,0.0166299 0.000354331,0.0332992 0.000354331,0.0500079 0,0.245417 -0.0253189,0.483843 -0.0720157,0.697272 -0.0472953,0.216177 -0.116874,0.407606 -0.204728,0.556055l-0.14672 -0.0866969z"/>
 </g>
</svg>
